<svg width="82" height="82" viewBox="0 0 82 82" fill="none" xmlns="http://www.w3.org/2000/svg">
<path d="M73.4586 1.87974L40.9999 34.3383L8.54135 1.87973C6.70173 0.0401008 3.7192 0.0400767 1.87971 1.87974C0.0402896 3.71934 0.0400552 6.70184 1.87973 8.54135C1.87973 8.54136 1.87974 8.54136 1.87974 8.54137L34.3383 40.9999L1.87973 73.4585C0.0401061 75.2981 0.0400758 78.2806 1.87973 80.1201C3.71937 81.9598 6.70189 81.9596 8.54135 80.1201L40.9999 47.6615L73.4583 80.1201C75.298 81.9598 78.2807 81.9596 80.1201 80.1201L79.7666 79.7666L80.1201 80.1201C81.9596 78.2805 81.9596 75.298 80.1201 73.4585L47.6619 40.9999L80.1204 8.54135L79.7669 8.1878L80.1205 8.54133C81.9599 6.70171 81.9599 3.71921 80.1204 1.87973C78.2808 0.0401063 75.2981 0.0400755 73.4586 1.87972C73.4586 1.87973 73.4586 1.87974 73.4586 1.87974Z" fill="#70757A" stroke="#70757A"/>
</svg>
